<?xml version="1.0" encoding="UTF-8"?>
<svg width="512" height="512" viewBox="-2.1 0 31.3 31.3"
     xmlns="http://www.w3.org/2000/svg">
    <!-- White inner diamond fill -->
    <path
        fill="#ffffff"
        d="M26.022 22.885 L13.551 30.085 1.08 22.885 V8.483 l12.471-7.199 12.471 7.199z"/>
    <!-- Blue diamond outline -->
    <path
        fill="#144678"
        d="M26.022 7.2 L15.776 1.284 13.551 0 11.327 1.284 1.08 7.2 0 7.824 v15.648 l1.08 0.624 10.375 5.989 2.097 1.211 2.097-1.211 10.374-5.989 1.081-0.624 V7.824z M26.022 22.885 L13.551 30.085 1.08 22.885 V8.483 l12.471-7.199 12.471 7.199z"/>

    <!-- Accent dots (red, yellow, teal) - aligned parallel to diamond edge -->
    <circle cx="4.1" cy="9.04" r="0.7" fill="#cb4544"/>
    <circle cx="5.9" cy="8.0" r="0.7" fill="#edaa00"/>
    <circle cx="7.7" cy="6.96" r="0.7" fill="#a1d0ca"/>
    <!-- xportrs text  -->
    <path
        fill="#144678"
        d="M 7.1501668,16.956713 H 6.546481 L 5.7390195,15.863965 4.9264636,16.956713 H 4.3686274 l 1.110578,-1.418789 -1.1003893,-1.426431 h 0.6036858 l 0.8023671,1.074918 0.8049144,-1.074918 h 0.5603834 l -1.1182196,1.400959 z m 3.1279582,-1.456997 q 0,0.346419 -0.09934,0.634252 -0.09934,0.285286 -0.2801914,0.483967 -0.1681151,0.188493 -0.3973628,0.292928 -0.2267006,0.101888 -0.4814203,0.101888 -0.2216062,0 -0.4024572,-0.0484 -0.1783038,-0.0484 -0.3642492,-0.150284 v 1.192088 H 7.77423 v -3.894665 h 0.4788731 v 0.298022 q 0.1910398,-0.160473 0.4279292,-0.267455 0.2394365,-0.10953 0.5094394,-0.10953 0.5145339,0 0.79982,0.389721 0.2878333,0.387174 0.2878333,1.077465 z m -0.4941563,0.01274 q 0,-0.514534 -0.1757566,-0.769254 -0.1757566,-0.254719 -0.5400058,-0.254719 -0.206323,0 -0.4151932,0.08915 -0.2088702,0.08915 -0.39991,0.234343 v 1.612375 q 0.2037758,0.0917 0.3489661,0.124813 0.1477374,0.03311 0.3336828,0.03311 0.39991,0 0.6240633,-0.270003 0.2241534,-0.270003 0.2241534,-0.79982 z m 3.6654163,0.02293 q 0,0.695384 -0.356607,1.097842 -0.356608,0.402457 -0.955199,0.402457 -0.603686,0 -0.960293,-0.402457 -0.354061,-0.402458 -0.354061,-1.097842 0,-0.695385 0.354061,-1.097842 0.356607,-0.405005 0.960293,-0.405005 0.598591,0 0.955199,0.405005 0.356607,0.402457 0.356607,1.097842 z m -0.494156,0 q 0,-0.552742 -0.216512,-0.820198 -0.216511,-0.270003 -0.601138,-0.270003 -0.389721,0 -0.606233,0.270003 -0.213965,0.267456 -0.213965,0.820198 0,0.534911 0.216512,0.812556 0.216512,0.275097 0.603686,0.275097 0.382079,0 0.598591,-0.27255 0.219059,-0.275098 0.219059,-0.815103 z m 3.010788,-0.901708 h -0.02547 q -0.106982,-0.02547 -0.20887,-0.03566 -0.09934,-0.01274 -0.23689,-0.01274 -0.221606,0 -0.427929,0.09934 -0.206323,0.09679 -0.397362,0.252172 v 2.019928 H 14.19062 v -2.84522 h 0.478874 v 0.420288 q 0.285286,-0.229248 0.501797,-0.323494 0.219059,-0.09679 0.44576,-0.09679 0.124813,0 0.180851,0.0076 0.05604,0.0051 0.168115,0.02293 z m 1.928228,2.297572 q -0.135002,0.03566 -0.295475,0.05859 -0.157927,0.02293 -0.282739,0.02293 -0.435571,0 -0.662272,-0.234342 -0.2267,-0.234342 -0.2267,-0.751423 v -1.513035 h -0.323494 v -0.402458 h 0.323494 v -0.81765 h 0.478873 v 0.81765 h 0.988313 v 0.402458 h -0.988313 v 1.296523 q 0,0.224153 0.01019,0.351513 0.01019,0.124813 0.07132,0.234342 0.05604,0.101888 0.152832,0.150285 0.09934,0.04585 0.300569,0.04585 0.117172,0 0.244531,-0.03311 0.12736,-0.03566 0.183399,-0.05859 h 0.02547 z m 2.35361,-2.297572 h -0.02547 q -0.106982,-0.02547 -0.20887,-0.03566 -0.09934,-0.01274 -0.236889,-0.01274 -0.221606,0 -0.427929,0.09934 -0.206323,0.09679 -0.397363,0.252172 v 2.019928 h -0.478873 v -2.84522 h 0.478873 v 0.420288 q 0.285286,-0.229248 0.501798,-0.323494 0.219059,-0.09679 0.445759,-0.09679 0.124813,0 0.180851,0.0076 0.05604,0.0051 0.168115,0.02293 z m 2.483518,1.502846 q 0,0.389721 -0.323494,0.639347 -0.320947,0.249625 -0.878783,0.249625 -0.315853,0 -0.580761,-0.07387 -0.262361,-0.07642 -0.440665,-0.165567 v -0.537459 h 0.02547 q 0.2267,0.170662 0.504345,0.27255 0.277644,0.09934 0.532364,0.09934 0.315852,0 0.494156,-0.101888 0.178304,-0.101888 0.178304,-0.320947 0,-0.168115 -0.09679,-0.25472 -0.09679,-0.08661 -0.371891,-0.147737 -0.101888,-0.02293 -0.267456,-0.05349 -0.163021,-0.03057 -0.298022,-0.06623 -0.374438,-0.09934 -0.532364,-0.29038 -0.155379,-0.193587 -0.155379,-0.473779 0,-0.175756 0.07132,-0.331135 0.07387,-0.155379 0.221606,-0.277645 0.142643,-0.119718 0.361702,-0.188492 0.221607,-0.07132 0.494157,-0.07132 0.254719,0 0.514534,0.06368 0.262361,0.06113 0.43557,0.150285 v 0.511986 h -0.02547 q -0.183398,-0.135001 -0.445759,-0.2267 -0.262362,-0.09425 -0.514534,-0.09425 -0.262361,0 -0.443212,0.101888 -0.180851,0.09934 -0.180851,0.298022 0,0.175757 0.109529,0.264909 0.106982,0.08915 0.346419,0.14519 0.132454,0.03057 0.295475,0.06113 0.165568,0.03057 0.275097,0.05604 0.333683,0.07642 0.514534,0.262362 0.180851,0.188492 0.180851,0.49925 z"/>
</svg>
